<mxfile host="Electron" modified="2024-05-02T21:41:23.073Z" agent="Mozilla/5.0 (Windows NT 10.0; Win64; x64) AppleWebKit/537.36 (KHTML, like Gecko) draw.io/24.2.5 Chrome/120.0.6099.109 Electron/28.1.0 Safari/537.36" etag="SEgqNSeM-EnnZvU_WE0W" scale="2" border="0" version="24.2.5" type="device">
  <diagram name="Seite-1" id="eYls12pk38ChyRsIaMzn">
    <mxGraphModel dx="625" dy="364" grid="1" gridSize="10" guides="1" tooltips="1" connect="1" arrows="1" fold="1" page="1" pageScale="1" pageWidth="1169" pageHeight="1654" math="0" shadow="0">
      <root>
        <mxCell id="0" />
        <mxCell id="1" parent="0" />
        <mxCell id="90ayUfb-X1jxF-5PFBxL-4" value="" style="rounded=0;whiteSpace=wrap;html=1;dashed=1;dashPattern=1 2;fillColor=#ffe6cc;strokeColor=#d79b00;" parent="1" vertex="1">
          <mxGeometry x="330" y="337.99" width="190" height="82.01" as="geometry" />
        </mxCell>
        <mxCell id="fzVLtD4s_GmzEl5ITfrU-1" value="fc (16bit) +&amp;nbsp;&lt;div&gt;shift (8 bit) + ReLU&lt;/div&gt;" style="rounded=0;whiteSpace=wrap;html=1;fillColor=#e1d5e7;strokeColor=#9673a6;" parent="1" vertex="1">
          <mxGeometry x="340" y="360" width="170" height="32.01" as="geometry" />
        </mxCell>
        <mxCell id="90ayUfb-X1jxF-5PFBxL-7" value="" style="edgeStyle=orthogonalEdgeStyle;rounded=0;orthogonalLoop=1;jettySize=auto;html=1;exitX=0.5;exitY=1;exitDx=0;exitDy=0;" parent="1" source="fzVLtD4s_GmzEl5ITfrU-1" edge="1">
          <mxGeometry relative="1" as="geometry">
            <mxPoint x="425" y="420" as="targetPoint" />
            <mxPoint x="425" y="427.99" as="sourcePoint" />
          </mxGeometry>
        </mxCell>
        <mxCell id="90ayUfb-X1jxF-5PFBxL-5" value="One Layer" style="text;html=1;align=center;verticalAlign=middle;whiteSpace=wrap;rounded=0;fontSize=14;fontStyle=1" parent="1" vertex="1">
          <mxGeometry x="382.5" y="310" width="85" height="30" as="geometry" />
        </mxCell>
        <mxCell id="90ayUfb-X1jxF-5PFBxL-8" value="" style="edgeStyle=orthogonalEdgeStyle;rounded=0;orthogonalLoop=1;jettySize=auto;html=1;entryX=0.5;entryY=0;entryDx=0;entryDy=0;" parent="1" edge="1">
          <mxGeometry relative="1" as="geometry">
            <mxPoint x="424.9" y="340" as="sourcePoint" />
            <mxPoint x="424.9" y="360" as="targetPoint" />
          </mxGeometry>
        </mxCell>
        <mxCell id="90ayUfb-X1jxF-5PFBxL-10" value="Layer 1" style="rounded=0;whiteSpace=wrap;html=1;fillColor=#ffe6cc;strokeColor=#d79b00;" parent="1" vertex="1">
          <mxGeometry x="150" y="330" width="120" height="20" as="geometry" />
        </mxCell>
        <mxCell id="90ayUfb-X1jxF-5PFBxL-12" style="edgeStyle=orthogonalEdgeStyle;rounded=0;orthogonalLoop=1;jettySize=auto;html=1;entryX=0.498;entryY=-0.038;entryDx=0;entryDy=0;startArrow=none;startFill=0;entryPerimeter=0;" parent="1" target="90ayUfb-X1jxF-5PFBxL-10" edge="1">
          <mxGeometry relative="1" as="geometry">
            <mxPoint x="209.9546511627907" y="310" as="sourcePoint" />
            <mxPoint x="209.95" y="340" as="targetPoint" />
          </mxGeometry>
        </mxCell>
        <mxCell id="90ayUfb-X1jxF-5PFBxL-14" value="64" style="text;html=1;align=center;verticalAlign=middle;whiteSpace=wrap;rounded=0;fontStyle=2" parent="1" vertex="1">
          <mxGeometry x="216" y="310" width="30" height="15" as="geometry" />
        </mxCell>
        <mxCell id="90ayUfb-X1jxF-5PFBxL-20" value="Layer 2" style="rounded=0;whiteSpace=wrap;html=1;fillColor=#ffe6cc;strokeColor=#d79b00;" parent="1" vertex="1">
          <mxGeometry x="150" y="370" width="120" height="20" as="geometry" />
        </mxCell>
        <mxCell id="90ayUfb-X1jxF-5PFBxL-21" style="edgeStyle=orthogonalEdgeStyle;rounded=0;orthogonalLoop=1;jettySize=auto;html=1;entryX=0.498;entryY=-0.038;entryDx=0;entryDy=0;startArrow=none;startFill=0;entryPerimeter=0;" parent="1" target="90ayUfb-X1jxF-5PFBxL-20" edge="1">
          <mxGeometry relative="1" as="geometry">
            <mxPoint x="209.9546511627907" y="350" as="sourcePoint" />
            <mxPoint x="209.95" y="380" as="targetPoint" />
          </mxGeometry>
        </mxCell>
        <mxCell id="90ayUfb-X1jxF-5PFBxL-22" value="16" style="text;html=1;align=center;verticalAlign=middle;whiteSpace=wrap;rounded=0;fontStyle=2" parent="1" vertex="1">
          <mxGeometry x="216" y="350" width="30" height="15" as="geometry" />
        </mxCell>
        <mxCell id="90ayUfb-X1jxF-5PFBxL-23" value="Layer 3" style="rounded=0;whiteSpace=wrap;html=1;fillColor=#ffe6cc;strokeColor=#d79b00;" parent="1" vertex="1">
          <mxGeometry x="150" y="410" width="120" height="20" as="geometry" />
        </mxCell>
        <mxCell id="90ayUfb-X1jxF-5PFBxL-24" style="edgeStyle=orthogonalEdgeStyle;rounded=0;orthogonalLoop=1;jettySize=auto;html=1;entryX=0.498;entryY=-0.038;entryDx=0;entryDy=0;startArrow=none;startFill=0;entryPerimeter=0;" parent="1" target="90ayUfb-X1jxF-5PFBxL-23" edge="1">
          <mxGeometry relative="1" as="geometry">
            <mxPoint x="209.9546511627907" y="390" as="sourcePoint" />
            <mxPoint x="209.95" y="420" as="targetPoint" />
          </mxGeometry>
        </mxCell>
        <mxCell id="90ayUfb-X1jxF-5PFBxL-25" value="16" style="text;html=1;align=center;verticalAlign=middle;whiteSpace=wrap;rounded=0;fontStyle=2" parent="1" vertex="1">
          <mxGeometry x="216" y="393" width="30" height="15" as="geometry" />
        </mxCell>
        <mxCell id="90ayUfb-X1jxF-5PFBxL-35" style="edgeStyle=orthogonalEdgeStyle;rounded=0;orthogonalLoop=1;jettySize=auto;html=1;entryX=0.5;entryY=0;entryDx=0;entryDy=0;" parent="1" source="90ayUfb-X1jxF-5PFBxL-26" edge="1">
          <mxGeometry relative="1" as="geometry">
            <mxPoint x="210" y="490" as="targetPoint" />
          </mxGeometry>
        </mxCell>
        <mxCell id="90ayUfb-X1jxF-5PFBxL-26" value="Last layer&amp;nbsp;" style="rounded=0;whiteSpace=wrap;html=1;fillColor=#ffe6cc;strokeColor=#d79b00;" parent="1" vertex="1">
          <mxGeometry x="150" y="450" width="120" height="20" as="geometry" />
        </mxCell>
        <mxCell id="90ayUfb-X1jxF-5PFBxL-27" style="edgeStyle=orthogonalEdgeStyle;rounded=0;orthogonalLoop=1;jettySize=auto;html=1;entryX=0.498;entryY=-0.038;entryDx=0;entryDy=0;startArrow=none;startFill=0;entryPerimeter=0;" parent="1" target="90ayUfb-X1jxF-5PFBxL-26" edge="1">
          <mxGeometry relative="1" as="geometry">
            <mxPoint x="209.9546511627907" y="430" as="sourcePoint" />
            <mxPoint x="209.95" y="460" as="targetPoint" />
          </mxGeometry>
        </mxCell>
        <mxCell id="90ayUfb-X1jxF-5PFBxL-28" value="16" style="text;html=1;align=center;verticalAlign=middle;whiteSpace=wrap;rounded=0;fontStyle=2" parent="1" vertex="1">
          <mxGeometry x="216" y="433" width="30" height="15" as="geometry" />
        </mxCell>
        <mxCell id="90ayUfb-X1jxF-5PFBxL-36" value="10 + class" style="text;html=1;align=center;verticalAlign=middle;whiteSpace=wrap;rounded=0;fontStyle=2" parent="1" vertex="1">
          <mxGeometry x="211.5" y="470" width="65" height="15" as="geometry" />
        </mxCell>
        <mxCell id="90ayUfb-X1jxF-5PFBxL-37" value="out: class prediction" style="text;html=1;align=center;verticalAlign=middle;whiteSpace=wrap;rounded=0;fontStyle=2;fontSize=8;" parent="1" vertex="1">
          <mxGeometry x="150" y="490" width="120" height="15" as="geometry" />
        </mxCell>
        <mxCell id="90ayUfb-X1jxF-5PFBxL-38" value="in: normalized image" style="text;html=1;align=center;verticalAlign=middle;whiteSpace=wrap;rounded=0;fontStyle=2;fontSize=8;" parent="1" vertex="1">
          <mxGeometry x="150" y="292.99" width="120" height="15" as="geometry" />
        </mxCell>
        <mxCell id="90ayUfb-X1jxF-5PFBxL-39" value="Model&amp;nbsp;&lt;span style=&quot;background-color: initial;&quot;&gt;for on-MCU inference&lt;/span&gt;" style="text;html=1;align=center;verticalAlign=middle;whiteSpace=wrap;rounded=0;fontSize=14;fontStyle=1" parent="1" vertex="1">
          <mxGeometry x="137" y="260" width="146" height="30" as="geometry" />
        </mxCell>
        <mxCell id="90ayUfb-X1jxF-5PFBxL-40" value="" style="endArrow=none;html=1;strokeWidth=1;rounded=0;entryX=0;entryY=0;entryDx=0;entryDy=0;dashed=1;strokeColor=#696969;" parent="1" target="90ayUfb-X1jxF-5PFBxL-4" edge="1">
          <mxGeometry width="50" height="50" relative="1" as="geometry">
            <mxPoint x="270" y="370" as="sourcePoint" />
            <mxPoint x="320" y="320" as="targetPoint" />
          </mxGeometry>
        </mxCell>
        <mxCell id="90ayUfb-X1jxF-5PFBxL-41" value="" style="endArrow=none;html=1;strokeWidth=1;rounded=0;entryX=0;entryY=1;entryDx=0;entryDy=0;dashed=1;strokeColor=#696969;" parent="1" target="90ayUfb-X1jxF-5PFBxL-4" edge="1">
          <mxGeometry width="50" height="50" relative="1" as="geometry">
            <mxPoint x="270" y="390" as="sourcePoint" />
            <mxPoint x="330" y="355" as="targetPoint" />
          </mxGeometry>
        </mxCell>
        <mxCell id="SWkeCZHJfMXZ8Tbdegt--3" value="8 bit&amp;nbsp;" style="text;html=1;align=center;verticalAlign=middle;whiteSpace=wrap;rounded=0;fontStyle=2" parent="1" vertex="1">
          <mxGeometry x="435" y="398" width="40" height="15" as="geometry" />
        </mxCell>
        <mxCell id="SWkeCZHJfMXZ8Tbdegt--6" value="8 bit&amp;nbsp;" style="text;html=1;align=center;verticalAlign=middle;whiteSpace=wrap;rounded=0;fontStyle=2" parent="1" vertex="1">
          <mxGeometry x="440" y="340" width="40" height="15" as="geometry" />
        </mxCell>
      </root>
    </mxGraphModel>
  </diagram>
</mxfile>
